<svg xmlns="http://www.w3.org/2000/svg" xmlns:xlink="http://www.w3.org/1999/xlink" viewBox="0 0 659.8 659.8"><defs><style>.cls-1,.cls-11{fill:none;}.cls-2{clip-path:url(#clip-path);}.cls-3{fill:#f5f6f7;}.cls-4{fill:#d18e6c;}.cls-5{fill:#f8dbc0;}.cls-6{fill:#fff;}.cls-7{fill:#f1ac86;}.cls-8{fill:#c5764a;}.cls-9{fill:#fdded0;}.cls-10{fill:#533419;}.cls-11{stroke:#496b7e;stroke-miterlimit:10;stroke-width:15px;}</style><clipPath id="clip-path" transform="translate(-20.1 -20.1)"><rect class="cls-1" width="700" height="700"/></clipPath></defs><title>bordo</title><g id="Layer_2" data-name="Layer 2"><g id="Layer_1-2" data-name="Layer 1"><g class="cls-2"><path class="cls-3" d="M672.4,350a320.89,320.89,0,0,1-60.67,188.29c-1,1.35-2,2.7-3,4l-.51.69q-3.33,4.46-6.81,8.78-7.79,9.68-16.28,18.73a.85.85,0,0,1-.16.17c-.61.66-1.24,1.32-1.87,2-.33.35-.67.71-1,1.06q-3.55,3.71-7.24,7.28-1.75,1.71-3.54,3.39c-.31.31-.63.6-.94.88-3.15,3-6.36,5.85-9.63,8.68a321.24,321.24,0,0,1-140.34,70.72c-2.75.62-5.5,1.19-8.27,1.73l-.54.11c-2.09.4-4.18.78-6.29,1.15a323.1,323.1,0,0,1-48,4.65l-2.78,0c-1.5,0-3,0-4.52,0a324.8,324.8,0,0,1-42.68-2.8c-2.32-.3-4.62-.64-6.92-1l-2.61-.42c-1-.16-2.07-.34-3.11-.52C143,641.44,27.6,509.2,27.6,350,27.6,171.94,171.94,27.6,350,27.6S672.4,171.94,672.4,350" transform="translate(-20.1 -20.1)"/><path class="cls-4" d="M554.87,471.14c-1.14-2.2-2.24-4.43-3.31-6.67s-2-4.41-3-6.63c-.57-1.28-1.19-2.59-1.8-3.92a57.66,57.66,0,0,1-3.71-9.54c-.83-3.29-2.49-6.27-3.77-9.46A98.75,98.75,0,0,1,535.57,424a96.5,96.5,0,0,1-3.29-22.56c0-1,0-2,0-3,0-8.31.84-16.62.2-24.93-.08-1-.15-2-.23-3.08-.05-.68-.09-1.38-.15-2.07-.07-1-.13-2-.21-3-.27-3.92-.56-7.85-1-11.75l-.12-1.07c-.12-1.17-.26-2.35-.43-3.52-.25-2-.54-3.93-.85-5.9-.14-.9-.28-1.79-.44-2.69,0-.1,0-.19,0-.29-.08-.48-.17-1-.26-1.44-.11-.69-.24-1.37-.36-2.06-.16-.9-.34-1.79-.51-2.68l-.33-1.64c-.1-.5-.2-1-.31-1.5s-.25-1.17-.37-1.76c-.1-.42-.19-.84-.28-1.26-.27-1.2-.55-2.41-.83-3.61-.23-1-.47-1.94-.71-2.9-.3-1.2-.61-2.38-.93-3.57-.13-.49-.26-1-.4-1.47-.3-1.12-.62-2.23-1-3.34s-.62-2.13-.95-3.2c-.16-.52-.33-1.06-.49-1.59h0c-.31-1-.64-2-1-3h0c-.27-.82-.54-1.63-.82-2.44A238.81,238.81,0,0,0,500.7,260.9q-5.31-9.37-11.42-18.3c-3-4.44-6.75-8.79-9.46-13.56-5.73.5-11.4-.16-15.83-2.48a15.52,15.52,0,0,1-8.4-12.18,18.1,18.1,0,0,1-.19-3.51,13.16,13.16,0,0,1,.77-4.42,21.69,21.69,0,0,1,10.66-12.59c9.17-4.86,21.31-3.64,30.31,1.15a17.68,17.68,0,0,1,4.94,3.87c.21.24.42.48.61.73A15.45,15.45,0,0,1,506,210.2a27.28,27.28,0,0,0,4.05-13.68c.27-12.47-8.52-21.45-19.31-25.59a38.73,38.73,0,0,0-12.22-2.56,46.82,46.82,0,0,0-6,.14,68.24,68.24,0,0,0-18.92,4.73c-.58.23-1.18.46-1.76.72-2.29,1.14-4.56,2.39-6.85,3.66-3.95,2.17-7.83,3.47-12.37,2.58-5.38-1.07-10.53-3.41-15.91-4.64a87.25,87.25,0,0,0-16-2,99.35,99.35,0,0,0-39.18,6.63q-3.17,1.36-6.23,3l-.65.34c-.5.26-1,.53-1.49.81q-2,1.11-4,2.31c-.57.35-1.12.74-1.69,1.15l-.11.08c-1.64,1.17-3.31,2.49-5,3.62a20.54,20.54,0,0,1-3.11,1.7c-.94,2.2-4.4,1-4-1.52a51.4,51.4,0,0,1,1.22-5.44,60.91,60.91,0,0,1,6.61-15.09,52.28,52.28,0,0,1,18.83-20,65.94,65.94,0,0,1,6.88-4.18,58,58,0,0,0-9.61,3.14,66.7,66.7,0,0,0-7.77,4,86.88,86.88,0,0,0-8.68,5.93c-2.56,2-5,4-7.48,6.19a169.7,169.7,0,0,0-15.53,16.16,104.55,104.55,0,0,1-9,10.73h0a217.57,217.57,0,0,1-19.37,17.58c-.3.26-.74-.18-.43-.46,2.5-2.6,5.12-5.28,7.78-8.08a.14.14,0,0,1,.05-.1c.51-.59,1-1.17,1.53-1.73s1-1.26,1.48-1.89c4.2-5.32,8.53-10.56,12.81-15.78a113.75,113.75,0,0,0,9.69-15.88,57.72,57.72,0,0,0,6.32-22.3,48,48,0,0,0-1-11.24c-.45,1.46-1,2.92-1.53,4.35-3.57,9-9.46,17.4-15.3,24.61-.41.51-.81,1-1.22,1.5-10.14,12.33-22.3,22.5-35.12,31.81C264.82,204.06,252.58,212,240.65,220c-5.86,3.95-11.7,8-17.38,12.18a204.87,204.87,0,0,0-19.1,16.59,133.89,133.89,0,0,0-14.4,16.7c-1.62,2.27-3.05,4.75-4.47,7.23a58.84,58.84,0,0,1-6.67,10l-.14.14a1.1,1.1,0,0,1-.9.31.61.61,0,0,1-.18.08c-20.88,3.16-43.92,15.3-50.37,36a39.91,39.91,0,0,0-1.25,8.79,36.49,36.49,0,0,0,3.14,15.88,27.77,27.77,0,0,0,12.74,13.74,19.72,19.72,0,0,0,7.38,2.08,22.44,22.44,0,0,0,8.55-1.08,13.61,13.61,0,0,1-11-5.18A17.41,17.41,0,0,1,143.9,349a.08.08,0,0,1,0,0c-4.21-10.13,3.14-21.54,11.35-27.95,5.51-4.31,12.29-8.14,19.53-7.42,3.72.38,8.33,2.09,10.32,5.35,5.94,7.75,1.25,21.39-4.71,27.84a11.91,11.91,0,0,1-.85.89c-.17.23-.35.46-.53.66l0,.11c.42,1.41.81,2.82,1.19,4.23,1,3.81,1.93,7.63,2.83,11.41,2.4,9.82,4.85,19.66,7.65,29.37a324.65,324.65,0,0,0,14.45,40.77q2.38,5.43,5.05,10.75a208.9,208.9,0,0,0,14.42,24.28l.08.12c.62.9,1.24,1.8,1.87,2.69,1.42,2,2.87,4,4.34,6l1.73,2.3q4.16,5.46,8.56,10.77c1.25,1.52,2.52,3,3.79,4.54l1.92,2.26,4.74,5.54c.71.82,1.42,1.66,2.12,2.48,1.82,2.12,3.63,4.23,5.44,6.36l2.21,2.62h0c1.25,1.5,2.51,3,3.75,4.51,5,6.14,9.87,12.39,14.3,18.86a242.31,242.31,0,0,1,9.23,24.6c.27.82.52,1.65.77,2.47.76,2.48,1.47,5,2.16,7.44,7,25.45,9.59,51.49,9.25,77.83-.07,5.87-.26,11.87-.48,18,2.3.35,4.6.69,6.92,1A324.8,324.8,0,0,0,350,672.4c1.51,0,3,0,4.52,0-2.18-10.41-4.65-20.92-5.74-31.46a.31.31,0,0,1,.61-.13c3.48,10.1,5.31,21,7.91,31.54a323.1,323.1,0,0,0,48-4.65c-5.22-10.61-10.58-21.13-15.85-31.68a226,226,0,0,0-41.35-57.81c-22.12-22.38-48.61-39.89-70.3-62.71q-1.59-1.66-3.16-3.36l-1.41-1.53-.92-1-.43-.47-.92-1-.75-.84c-.42-.46-.83-.94-1.24-1.41-1.08-1.22-2.15-2.46-3.2-3.7-.44-.51-.86-1-1.29-1.53l-.27-.33q-1.39-1.66-2.74-3.36c-.47-.59-.93-1.18-1.39-1.78s-.89-1.14-1.33-1.71c-1-1.32-2-2.64-2.94-4l-1.1-1.56c-.54-.77-1.07-1.54-1.59-2.32-.37-.54-.74-1.1-1.1-1.65l0,0c-.35-.55-.71-1.09-1-1.64s-.72-1.12-1.05-1.68c-.7-1.12-1.38-2.24-2-3.38-.33-.57-.65-1.15-1-1.72s-.56-1-.85-1.53L245,472l-.7-1.4c-.56-1.12-1.11-2.26-1.63-3.4-.12-.25-.23-.51-.35-.77-.22-.51-.45-1-.66-1.51s-.5-1.17-.74-1.76-.49-1.21-.72-1.82c-.48-1.23-.93-2.46-1.35-3.7-.35-1-.67-2-1-3-.23-.77-.46-1.55-.67-2.33l-.33-1.22c-.2-.77-.39-1.54-.56-2.31-.1-.4-.19-.79-.27-1.19s-.15-.66-.22-1q-.51-2.49-.87-5c0-.28-.09-.57-.12-.85-.11-.83-.22-1.66-.3-2.5,0-.29-.06-.57-.08-.86s-.05-.48-.07-.72c0-.41-.07-.82-.1-1.24l0-.55c-.06-1-.1-2.05-.11-3.08,0-.85,0-1.7,0-2.54,0-.46,0-.92,0-1.38,0-.92.09-1.84.17-2.75a55.1,55.1,0,0,1,1.33-8.11c6.85-30,35.86-52.36,60.41-68.31C319.46,333.4,345,320.7,370.67,310c3.12-1.31,6.25-2.55,9.36-3.7,12.08-4.54,24.27-8.16,36.83-11.52,13.72-3.7,26.82-4.87,40.66-1,.75.2,1.5.43,2.24.67s1.48.49,2.2.76l.77.28c.66.26,1.32.52,2,.8l.88.38.18.08.93.43c.61.28,1.21.58,1.8.87l.78.41c.27.14.54.28.8.43l1,.58,1,.61a66.86,66.86,0,0,1,6.06,4.08l.89.68c.69.54,1.38,1.1,2,1.67l.83.7s0,0,0,.05l.71.63c.37.32.72.65,1.08,1l.85.8c1.21,1.14,2.39,2.34,3.53,3.57.68.73,1.34,1.47,2,2.23l.09.1.89,1.05c.32.38.64.77.95,1.17a.27.27,0,0,1,.07.08l.88,1.1.92,1.2c.31.4.61.81.91,1.21l.88,1.23c.59.83,1.16,1.66,1.72,2.5.28.42.57.85.84,1.27s.49.77.72,1.15.63,1,.94,1.51.49.81.72,1.22.51.87.76,1.31.5.87.74,1.32.49.88.73,1.32.46.87.68,1.31l0,0c.48.92,1,1.85,1.41,2.78.84,1.74,1.65,3.49,2.4,5.25.19.44.38.88.56,1.32s.37.88.54,1.32.36.88.53,1.32l.51,1.32c.23.62.46,1.23.67,1.85,0,.05,0,.09.05.13.18.5.35,1,.51,1.51a4.88,4.88,0,0,1,.18.54c.19.55.36,1.1.53,1.66s.33,1,.48,1.58c.06.2.12.4.17.6.16.55.31,1.1.46,1.66s.32,1.21.48,1.82c.33,1.32.64,2.64.93,4,.2.91.39,1.83.57,2.75h0c.46,2.33.86,4.68,1.23,7,0,.15,0,.31.06.46.1.58.18,1.16.26,1.74.27,1.9.51,3.81.74,5.72.14,1.12.27,2.25.39,3.37.1.87.19,1.73.28,2.61s.19,1.83.28,2.74c.16,1.52.3,3,.45,4.56l.15,1.52c4.35,44.89,14.42,90.57,31.91,132.22,6.78,16.19,15.19,31.71,22.48,47.72.68,1.49,1.36,3,2,4.47q3.69-3.59,7.24-7.29c.35-.35.69-.71,1-1.06-1.37-2.4-2.75-4.78-4.12-7.18a164.71,164.71,0,0,1-8.56-16.58.31.31,0,0,1,.53-.32,225.52,225.52,0,0,1,12.86,20.14l1.16,2a.85.85,0,0,0,.16-.17q8.51-9,16.28-18.73,3.48-4.34,6.81-8.78c-2.66-2.73-5.26-5.46-7.8-8.16-18-19.2-33.62-40.2-45.6-63.71M256,363.49a33.09,33.09,0,0,1-3.74.22,32,32,0,1,1,3.74-.22m152.42-70.36-.16.07a32,32,0,1,1-11.76-61.84h0a32,32,0,0,1,25.9,13.19h0a32,32,0,0,1-14,48.58" transform="translate(-20.1 -20.1)"/><path class="cls-5" d="M543.29,526.56c8,20.12,18.17,39.06,27.12,58.73q-4.74,4.44-9.63,8.67a321.24,321.24,0,0,1-140.34,70.72c-2.75.62-5.5,1.19-8.27,1.73q-3.54-7.32-7.22-14.58-3-6-6.07-11.94c-3.44-6.7-6.89-13.38-10.28-20.06A144.64,144.64,0,0,0,367,589.22c-9.8-10.9-20.79-20.83-31.59-30.54-1.91-1.72-3.85-3.43-5.79-5.13h0q-3.56-3.12-7.18-6.22l-4.69-4c-5.52-4.71-11.08-9.43-16.58-14.22l-2.24-2-1.72-1.51-2.1-1.86-3-2.66-.93-.83c-.64-.59-1.28-1.17-1.91-1.77-.39-.34-.77-.69-1.15-1.05q-5.13-4.75-10.06-9.66c-.41-.42-.82-.82-1.22-1.24q-1.89-1.9-3.73-3.84L272,501.53l-1.14-1.23c-.41-.44-.81-.87-1.21-1.32s-.77-.85-1.16-1.28-.77-.86-1.14-1.29l-1.15-1.29-1-1.16q-1.8-2.08-3.53-4.22l-2-2.45c-.06-.08-.12-.17-.19-.25-.66-.85-1.31-1.69-1.94-2.54s-1.11-1.48-1.65-2.23l-.44-.6c-.54-.74-1.06-1.49-1.57-2.25-.27-.38-.53-.77-.79-1.16L253,478c-.29-.43-.57-.87-.84-1.31-.18-.26-.34-.53-.51-.8l-.45-.72c-.26-.42-.51-.85-.76-1.28a1,1,0,0,1-.12-.19c-.22-.38-.45-.76-.66-1.15l-.47-.82c-.21-.38-.42-.75-.62-1.13-.3-.54-.59-1.09-.87-1.64s-.67-1.3-1-2l0,0c-.21-.45-.43-.89-.64-1.33s-.52-1.12-.77-1.69-.51-1.13-.75-1.71-.41-1-.61-1.46c-.08-.18-.16-.38-.23-.58-.18-.44-.35-.88-.52-1.32,0-.09-.07-.18-.1-.27-.16-.41-.32-.83-.47-1.24s-.3-.82-.43-1.22-.21-.58-.3-.87c-.35-1-.68-2-1-3.08-.07-.19-.12-.38-.18-.58-.31-1-.59-2.06-.85-3.09-.07-.24-.12-.49-.19-.74s-.13-.56-.2-.84-.17-.78-.26-1.17c-.17-.78-.33-1.56-.48-2.35-.08-.39-.15-.78-.22-1.17s-.13-.78-.19-1.17c-.25-1.56-.46-3.13-.61-4.69,0-.32-.06-.63-.08-.95-.06-.56-.1-1.11-.14-1.66,0-.3,0-.6,0-.9h0a71,71,0,0,1,0-7.72v0c0-.82.1-1.66.17-2.48,0-.43.08-.86.13-1.29h0c.09-.83.2-1.66.32-2.49.1-.46.23-.89.33-1.35a40.62,40.62,0,0,1,1.27-4,85.73,85.73,0,0,1,8.48-16.77v0q1.71-2.64,3.57-5.16a78.65,78.65,0,0,1,7.87-9.09,89.64,89.64,0,0,1,10.23-8.67c6.39-4.72,12-10.22,18.32-15a2.38,2.38,0,0,0,.31-.26,34.4,34.4,0,0,0-4,8.63,11.32,11.32,0,0,0-.45,4.24c.54,4.11,3.34,7.91,7.8,7.7,5.71-.25,11.29-2.47,17.16-2.57a62.46,62.46,0,0,1,44.17,16.8c.69.65,1.35,1.32,2,2,7.37,7.77,12.41,17.87,11.31,28.12a26.66,26.66,0,0,1-3.3,10.27l-.45.79c-8.17,14-24.31,24.08-40.75,27.48a54.4,54.4,0,0,1-10.42.49l-.89,0-.89-.07h0l-.75-.07c-.34,0-.69-.06-1-.11l-.89-.1-.83-.11-.14,0-.81-.12-.88-.15-.89-.17c-.59-.11-1.17-.23-1.76-.37q-2.62-.58-5.22-1.42a66.92,66.92,0,0,1-11.71-5c-.46-.25-.91-.5-1.36-.77l-.46-.28-.7-.42-.46-.31c-.25-.15-.49-.31-.73-.48a2.44,2.44,0,0,1-.33-.23c-.31-.2-.62-.41-.92-.63l-1-.72c-.17-.13-.35-.26-.51-.4l-.74-.59c-.3-.23-.59-.48-.88-.73s-.43-.36-.64-.56-.44-.38-.65-.58l-.19-.18c-.28-.26-.57-.52-.84-.8l-.24-.23-.58-.59c-.18-.17-.35-.35-.51-.52s-.26-.28-.38-.42-.37-.39-.56-.59-.24-.27-.35-.41l-.56-.64-.33-.39-.57-.7-.77-1c-.29-.38-.58-.76-.85-1.15-.56-.78-1.09-1.56-1.6-2.37-.36-.56-.72-1.14-1.05-1.72-.18-.28-.34-.57-.49-.85-.27-.49-.54-1-.79-1.46-.06-.1-.11-.21-.16-.31l-.34-.68a.41.41,0,0,0-.05-.09c-.27-.55-.54-1.11-.79-1.68l-.33-.74a2.29,2.29,0,0,0-.1-.23c-.11-.25-.21-.51-.32-.77-.23-.57-.46-1.15-.68-1.75,0,0,0,0,0,0l-.28-.75c0-.12-.08-.24-.13-.37-.18-.52-.35-1-.51-1.56-.1-.29-.18-.58-.28-.88,0,0,0,0,0-.06-.27-.9-.52-1.81-.74-2.72-.06-.23-.12-.47-.17-.7a47,47,0,0,1-.35-8.21v0c0-.41,0-.81.07-1.22l0-.38c0-.35,0-.71.09-1.06l.06-.6c0-.3.07-.6.11-.9.06-.5.14-1,.22-1.51a2.17,2.17,0,0,0,0-.25c.11-.68.24-1.35.39-2a3.4,3.4,0,0,0,.07-.34c.09-.39.18-.78.28-1.17s.2-.77.31-1.16.2-.72.31-1.07a46,46,0,0,1,4.64-10.37c.1-.15-.15-.28-.25-.13a44.1,44.1,0,0,0-8.63,27.91c0,.36,0,.72.05,1.08.06,1.23.18,2.47.34,3.69.12.86.26,1.71.42,2.57,0,.26.09.52.15.79l0,.12c.06.31.13.62.2.92a46.84,46.84,0,0,0,3.64,10.2c.46.93.95,1.84,1.48,2.74.39.67.79,1.34,1.23,2l0,0c.21.33.42.65.65,1s.45.65.69,1a52,52,0,0,0,5.38,6.2c.53.64,1.07,1.27,1.64,1.88l.25.28.77.81.7.72c.2.2.4.41.61.6s.34.34.52.5l.17.16.8.74.13.12.93.82c.32.28.65.55,1,.82l0,0c.8.67,1.63,1.31,2.48,1.93l1,.69c.69.48,1.38.94,2.09,1.38s1.42.87,2.15,1.27l1,.56.08,0,1.12.58c.73.36,1.46.71,2.21,1l.1,0c.37.17.75.33,1.12.47s.78.32,1.18.47.65.25,1,.36l.33.12c.29.11.59.2.88.3,1.33.44,2.69.82,4.06,1.14l.89.2c.41.1.83.18,1.24.26l.45.08.9.16,1.62.23,1.12.13c27.7,3,59-13.32,64.71-41.29a42.22,42.22,0,0,0,1.15-20.29l.39.28a47.24,47.24,0,0,0,24,11.4,58.74,58.74,0,0,0,11.67.69,56.15,56.15,0,0,0,13.81-1.61c.71-.18,1.41-.37,2.11-.59.24-.07.47-.13.7-.21q1-.31,2-.69l.68-.24.85-.33.89-.36c.31-.12.61-.25.92-.39s.57-.24.86-.38l.62-.28.6-.29c1-.48,2-1,2.94-1.52l.54-.3.65-.37c.56-.33,1.12-.66,1.66-1l.74-.47c.25-.16.5-.32.74-.49l.73-.49.63-.44c.28-.19.55-.39.82-.59l.89-.66c1.18-.9,2.33-1.83,3.45-2.82.28-.24.55-.48.82-.74s.44-.39.66-.6l1-1c.25-.24.5-.49.74-.74s.52-.52.77-.79q1.91-2,3.61-4.09l.12-.14c.45-.56.9-1.13,1.32-1.7.23-.3.45-.59.66-.9s.44-.6.65-.91l.63-.91c.21-.31.41-.62.61-.93.4-.62.79-1.26,1.17-1.89.2-.31.39-.63.56-.95l.55-1c.35-.65.7-1.3,1-2,.17-.33.33-.66.49-1s.33-.7.49-1,.24-.51.35-.77l.12-.28c.14-.31.27-.61.39-.92s.28-.67.41-1v0c.4-1,.78-2.06,1.12-3.1l.33-1.05a52.11,52.11,0,0,0,1.34-5.34c.15-.71.27-1.42.38-2.13,0,0,0-.05,0-.07q.09-.53.15-1.05c.15-1.08.27-2.16.34-3.25.06-.87.1-1.74.11-2.61v-.08a46,46,0,0,0-.32-6.41c0-.3-.07-.61-.11-.92s-.12-.85-.2-1.27h0c-.06-.42-.14-.84-.22-1.26s-.17-.83-.27-1.25a43.39,43.39,0,0,0-1.84-6.11c-.34-.92-.71-1.83-1.12-2.72a46.78,46.78,0,0,0-7.83-12c-.44-.5-.91-1-1.39-1.49-.8-.82-1.64-1.61-2.5-2.38a44.64,44.64,0,0,0-4.22-3.29l-.63-.43c-.85-.58-1.73-1.11-2.61-1.62l-.67-.37c-.22-.12-.44-.25-.67-.36l-.67-.35h0l-.68-.33c-.7-.34-1.4-.66-2.11-1-.24-.11-.48-.2-.71-.29-.66-.27-1.32-.52-2-.75l-.67-.22c-.62-.2-1.23-.38-1.85-.55l-.89-.23-.51-.13-.59-.13-.69-.15c-.25-.05-.52-.11-.78-.15s-.69-.12-1-.18c-.18,0-.26.23-.08.28a46.39,46.39,0,0,1,15.68,7.49l1.36,1.28,1.35,1.28c.43.42.85.83,1.27,1.26a49.34,49.34,0,0,1,4.21,4.76l.46.61.42.58c0,.06.09.12.13.19.26.36.51.74.77,1.13s.43.67.63,1,.42.69.62,1,.4.7.59,1.05.38.7.56,1.05l0,0c.18.34.36.69.53,1.05s.35.72.51,1.09c.35.72.67,1.46,1,2.21a53.68,53.68,0,0,1,1.88,5.34c.11.38.22.76.32,1.14.15.55.3,1.09.43,1.64a39.49,39.49,0,0,1,1,10.53c0,.36,0,.71,0,1.06s-.05.73-.08,1.1a2,2,0,0,1,0,.25c0,.35-.06.7-.1,1-.11,1.1-.27,2.19-.47,3.29a.37.37,0,0,1,0,.09c-.06.34-.12.68-.19,1s-.17.83-.27,1.24c0,.18-.08.36-.13.55-.23,1-.48,1.9-.77,2.84-.08.28-.16.56-.25.83a57.07,57.07,0,0,1-2,5.43c-.15.35-.3.69-.46,1s-.19.43-.29.63a2.56,2.56,0,0,1-.11.24c-.12.27-.25.53-.38.79l-.39.78c-.35.67-.7,1.33-1.06,2l-.6,1.06a55.46,55.46,0,0,1-17.66,18.45,74.24,74.24,0,0,1-10,4.16c-9.18,3-19.15,4.05-28.68,2.07-10.27-2.15-20.72-8.95-25.87-18.31A36.79,36.79,0,0,1,369.08,383c-1.72-9.48-.47-19.94,2.13-28.63a62.9,62.9,0,0,1,9.48-19.15,64.3,64.3,0,0,1,7-8.08c1.75-1.68,7.13-4.59,7.31-7.21.12-2-1.68-4-3.84-5.56a17.45,17.45,0,0,0-5.56-2.78,21.29,21.29,0,0,0-8.92,0c1.55-.62,3.1-1.2,4.66-1.76,10.86-4,21.8-7.37,33.11-10.48a128,128,0,0,1,13.65-3.08c2-.32,3.94-.57,5.91-.75a61.68,61.68,0,0,1,22.43,1.92l1.2.35c.45.14.9.28,1.35.44.29.09.59.19.88.3,1.27.44,2.51.94,3.74,1.48l1,.43.94.45c1.07.52,2.13,1.08,3.17,1.67l1.75,1c.57.36,1.14.72,1.7,1.09.41.26.81.54,1.21.82a4.84,4.84,0,0,1,.46.33c.6.42,1.18.86,1.76,1.31l.65.5c.5.39,1,.8,1.5,1.21l.84.72.77.67c.61.55,1.22,1.11,1.81,1.68l.3.27,1,1,.35.36A82.38,82.38,0,0,1,492.81,326l0,0q.8,1.18,1.53,2.4l.05.07c.49.79,1,1.59,1.43,2.39l.07.12c.46.79.91,1.59,1.34,2.4l.08.13c.43.81.86,1.63,1.27,2.45a.35.35,0,0,1,0,.08h0c.48,1,.94,1.9,1.39,2.85h0c.31.66.6,1.32.9,2,.2.46.41.93.61,1.4l.3.72c.19.45.38.9.56,1.35a1.8,1.8,0,0,0,.08.21c.12.28.23.56.34.85s.19.49.28.74.31.78.45,1.17.38,1,.55,1.53.37,1.05.55,1.57c.12.34.23.69.34,1s.26.81.39,1.21.19.6.28.91.27.88.4,1.32.22.75.32,1.12.16.55.23.83c.23.85.46,1.7.67,2.56.08.31.16.61.23.92.2.83.4,1.65.58,2.48.09.38.17.76.25,1.14A217.61,217.61,0,0,1,511.87,387c.28,2.56.53,5.12.78,7.68.41,4.26.81,8.53,1.25,12.76A448.92,448.92,0,0,0,521.77,456q.65,3,1.34,5.94a450,450,0,0,0,20.18,64.59" transform="translate(-20.1 -20.1)"/><path class="cls-5" d="M501.34,208.47a11.54,11.54,0,0,1,0,1.3c-.35,4.79-2.9,8.33-6.42,10.93a35.33,35.33,0,0,1-8.28,3.29c-5.38,1.4-13.13.28-18.18-1.78-3.7-1.51-7.06-4.28-8.49-8.06a11.13,11.13,0,0,1-.79-4.23c.18-10.22,16.88-14.43,25.11-14.3a30.7,30.7,0,0,1,9.48,2.7,15.56,15.56,0,0,1,7.6,10.15" transform="translate(-20.1 -20.1)"/><path class="cls-6" d="M408.68,269.82c6,0,7,9.38.94,9.38s-7-9.38-.94-9.38" transform="translate(-20.1 -20.1)"/><path class="cls-6" d="M402.67,256.67a13.6,13.6,0,0,1-1.07,6.78c-.62,1-1.2,2-1.82,3a13.71,13.71,0,0,1-5.81,4.23c-1.14.25-2.29.51-3.41.79a10.48,10.48,0,0,1-5.13-.59,10.26,10.26,0,0,1-4.66-2.29,10.51,10.51,0,0,1-3.37-4.23,10.32,10.32,0,0,1-1.65-5v-.77a14,14,0,0,1,1.07-6.78l1.81-3a13.74,13.74,0,0,1,5.84-4.23l3.41-.79a9.94,9.94,0,0,1,5.1.58,12.23,12.23,0,0,1,8,6.5,10.13,10.13,0,0,1,1.66,5Z" transform="translate(-20.1 -20.1)"/><path class="cls-6" d="M264.46,338.11c6,0,7,9.38.92,9.38s-7-9.38-.92-9.38" transform="translate(-20.1 -20.1)"/><path class="cls-6" d="M258.42,325a13.51,13.51,0,0,1-1.07,6.78l-1.81,3a13.49,13.49,0,0,1-5.82,4.2l-3.41.82a10.61,10.61,0,0,1-5.12-.59,9.77,9.77,0,0,1-4.64-2.32,10,10,0,0,1-3.37-4.2,10.13,10.13,0,0,1-1.66-5v-.77a13.4,13.4,0,0,1,1.08-6.78l1.8-3a13.56,13.56,0,0,1,5.82-4.23l3.41-.79a13,13,0,0,1,13.13,7.08,10.13,10.13,0,0,1,1.66,5Z" transform="translate(-20.1 -20.1)"/><path class="cls-5" d="M183.53,324.09a18.26,18.26,0,0,1,.81,6c-.46,4.87-3,9.33-6.19,13a45.67,45.67,0,0,1-8.31,7.62c-4.39,2.68-9.43,4.59-13.82,3.88a11.06,11.06,0,0,1-5.68-3.93c-7.22-9.05.89-20.32,8.18-26.28,4.33-3.54,9.51-6.37,15.27-6.12a11.29,11.29,0,0,1,9.74,5.76" transform="translate(-20.1 -20.1)"/><path class="cls-7" d="M467.49,196.55c-14.66,7.07-13.86,28,3.65,29,.55,0,.64-.68.26-.95-5.21-3.62-7.09-12.34-2.55-17.13,2.54-2.68,6.8-3.53,10.27-3.86,8.4-.81,19.59-.32,22.58,9.35a1.74,1.74,0,0,0,3.4-.46c.31-18.36-24.17-22.48-37.61-16" transform="translate(-20.1 -20.1)"/><path class="cls-7" d="M185.55,326.91a13.65,13.65,0,0,0-13.67-10.49c-16.54.66-25.8,17.37-28.12,31.56-.33,2,2.69,2.91,3.11.85,1.83-8.89,9.23-17.43,17.55-21.08,5-2.19,10.52-3.27,12.53,3,1.43,4.48.65,10.92-.73,15.25-.14.44.49.84.8.47,5-6.09,10.55-10.79,8.53-19.6" transform="translate(-20.1 -20.1)"/><path class="cls-7" d="M409.83,450.56c-11.37,6.46-23.74,14.06-36.5,17.79,2.3.49,4.24.8,4.92.89a52.37,52.37,0,0,0,24-2.36A57.41,57.41,0,0,0,428,448.42c5.06-6.32,8.4-14.39,10.79-22.63-7,10.74-17.95,18.53-28.95,24.77" transform="translate(-20.1 -20.1)"/><path class="cls-7" d="M455.66,333.93c-.55-.88-2.12-.32-1.75.74,8.37,23.93,1.09,51.21-22.52,63.66-21.74,11.45-54.91,3.25-64.95-20.46-.22-.51-.91-.18-.95.26-2.83,34.52,41.66,44.51,67,32.78a53.66,53.66,0,0,0,23.18-77" transform="translate(-20.1 -20.1)"/><path class="cls-7" d="M362,398.51a38.73,38.73,0,0,0-4-10.2c-.8-1.4-3.3-.86-3.17.86,1.9,24.84-1.85,45.9-25.69,58.81s-47,2.9-65.59-14c-.28-.26-.87,0-.7.4,7.53,19.1,26.72,28.22,46.05,28.11-.4.21-.54.91,0,1,18.54,3.5,36.4-4.83,47.94-19.49,9.49-12,15.37-32.4,5.11-45.52" transform="translate(-20.1 -20.1)"/><path class="cls-8" d="M583.15,572.67c-.33.35-.67.71-1,1.06-.89-2.79-2-5.53-3.1-8.24-.79-1.9-1.63-3.8-2.45-5.7a.14.14,0,0,1,.24-.15,91.41,91.41,0,0,1,7.24,11.51c-.31-1-.63-2.07-.91-3.1,0-.11.1-.15.16-.07.18.25.37.49.55.75.45.59.89,1.19,1.32,1.79a.85.85,0,0,1-.16.17c-.61.66-1.24,1.32-1.87,2" transform="translate(-20.1 -20.1)"/><path class="cls-8" d="M527.67,365a235,235,0,0,0-3.76-28.19c-.18-.89-.37-1.78-.56-2.67-.14-.64-.29-1.27-.43-1.91a197.44,197.44,0,0,0-6.78-23.13c-.35-1-.7-1.92-1.06-2.87-11.29-29.85-29.19-55.39-51.09-79.64q-1.58-1.74-3.17-3.47a.48.48,0,0,1,.46-.81l1,.29a64,64,0,0,1,7.71,2.93c1.31.59,2.56,1.21,3.78,1.87a.49.49,0,0,1,.23-.44c1.7-1.17,5.1.17,6.75,1,2,1,4,2.77,4,5.15a1.58,1.58,0,0,1-.8,1.34c6.91,6.07,12.38,13.79,17.62,23.15,10.12,18.09,18.63,37.88,23.82,58,5.47,21.16,7.55,42.4,7.91,64.22.16,10,.06,20,.49,30,5,14.51,7.88,29.59,13,44.11q1.62,4.59,3.59,9.09l.57,1.22a1.79,1.79,0,0,1,.68.24.42.42,0,0,1,.14.09c6.4,4.68,9.45,11.51,12.2,18.55,11.13,14.59,22,29.4,31.84,45a1.13,1.13,0,0,1,0,1.2c4.26,4.41,8.62,8.72,13,13l-.51.69c-2.22,3-4.5,5.89-6.81,8.78-18.07-18.7-35.65-38.25-48.24-61-9.27-16.74-18.13-38-20.85-58.75-.56-2.2-1.07-4.42-1.42-6.68A203.15,203.15,0,0,1,529,397.94c-.22-10.14-.46-20.12-1.13-30l-.21-2.94" transform="translate(-20.1 -20.1)"/><path class="cls-8" d="M507.84,184c-3.49-7.86-10.67-14.58-19.45-15.52a.26.26,0,0,0-.19.45c7.37,5.77,13.58,11.56,14.85,21.37,1,7.54-2.91,16,.94,22.81a1.31,1.31,0,0,0,2,.26c7.62-6.35,5.42-21.27,1.83-29.37" transform="translate(-20.1 -20.1)"/><path class="cls-8" d="M188.94,319.68c-5.32-12.32-21.57-11.95-32.15-7.65-12.06,4.91-21.61,17-20.09,30.55,1.2,10.72,11,21.49,22.2,16.51a.42.42,0,0,0,0-.72c-7-4-14.33-10.11-14-19,.37-9.1,7.38-15.79,15.34-19.07,8.18-3.36,22.62-6.85,25.76,5.19,2.71,10.37-5.43,19.1-11.84,25.86-.64.67.36,1.67,1,1,8.22-8.19,19.19-20,13.73-32.67" transform="translate(-20.1 -20.1)"/><path class="cls-8" d="M255.35,362.87c-13.11-2-27.44-12.09-30.16-25.54-3.16-15.63,6.5-25.17,16.89-34.82a.2.2,0,0,0-.14-.35c-40.5,2.68-29.43,73.56,13.41,62.5.83-.22.94-1.65,0-1.79" transform="translate(-20.1 -20.1)"/><path class="cls-8" d="M417.63,283.66c-16,9.56-36.87,11.78-46.12-8-9.7-20.76,7.82-37.1,25.56-43.8.16-.06.22-.37,0-.4-26-4.09-46.95,24.23-36.72,48.09,10.55,24.58,42.31,24.26,58,5,.38-.48-.1-1.25-.69-.9" transform="translate(-20.1 -20.1)"/><path class="cls-8" d="M331.52,130.42a1.21,1.21,0,0,0-2.18.28c-1.85,5.43-1.25,10.91-2,16.59a71.48,71.48,0,0,1-8.45,24.76c-6.3,11.67-14.18,22.34-22.08,32.95-.13.16.14.36.28.21C308.58,193.64,319.93,182,327,167c4.83-10.22,11-26.09,4.55-36.62" transform="translate(-20.1 -20.1)"/><path class="cls-8" d="M373.79,142.67c-10.14-1.1-21.24,9.34-27.15,16.58-7.92,9.71-10.36,20.94-10.51,33.23,0,.36.58.46.65.09,2.16-11.48,8.16-22.69,15.94-31.41,6.3-7.06,15.69-10,21.81-16.71a1.06,1.06,0,0,0-.74-1.78" transform="translate(-20.1 -20.1)"/><path class="cls-7" d="M564.41,571.19q3.47,6.62,6.94,13.21c-.31.31-.63.6-.94.89q-4.73,4.44-9.63,8.67c-5.75-13-10.3-26.56-15.18-39.93-11.54-31.57-21.52-64.32-23.83-98,0-.51-.07-1-.1-1.53s.53-.42.65-.08c13.09,39.33,22.74,79.83,42.09,116.77" transform="translate(-20.1 -20.1)"/><path class="cls-9" d="M307.32,669.6c-2.32-.3-4.62-.64-6.92-1l-2.61-.42c0-10.54,0-21.09-.34-31.62-1.63-46.63-12.63-90.71-44.27-126.22-.48-.53.15-1.47.8-1,2.59,1.76,5.07,3.64,7.43,5.6v0c29.59,24.7,41,64.68,44.66,102,1.72,17.49,1.73,35.06,1.24,52.62" transform="translate(-20.1 -20.1)"/><path class="cls-9" d="M193.77,393.08c-4.05-13.37-6.1-30.07-14.31-41.49a.81.81,0,0,0-1.5.4c-1.59,14.64,6,31.31,10.49,45.06,4.8,14.82,11.16,28.74,17.52,42.92.18.41.83.12.71-.3-4.45-15.5-8.24-31.15-12.91-46.59" transform="translate(-20.1 -20.1)"/><path class="cls-9" d="M185,283.58c-34.31-7.28-80.23,35.11-55,68.89.25.33.83.15.71-.3-4.63-17.48-3.3-34.94,10-48.48C152.88,291.21,168.94,288.6,185,284a.21.21,0,0,0,0-.4" transform="translate(-20.1 -20.1)"/><path class="cls-9" d="M313.74,157.37c-32.19,49.13-105.35,59.45-128.5,115.44-.11.27.3.38.44.18,19.09-26.54,45.45-43.36,72.68-60.61,23.07-14.63,43.29-29.91,56.67-54.25a.75.75,0,0,0-1.29-.76" transform="translate(-20.1 -20.1)"/><path class="cls-9" d="M345.15,154.66c-12.86,10.06-26.33,24.08-34.46,38.36-.15.27.17.65.45.45,13.4-9.6,25.95-24.36,34.67-38.3.27-.43-.31-.78-.66-.51" transform="translate(-20.1 -20.1)"/><path class="cls-9" d="M472.16,166c-9.62-.9-16.8,4.28-25.15,8.27-13.86,6.62-28.11-1.06-42.64-1.75-23.23-1.1-46.73,6-64.61,21-.16.14,0,.38.21.28,24-13.63,50.67-20.08,78.09-14.42,8.59,1.78,16.2,4.81,24.94,2.15,10.47-3.18,17.84-11.66,29.16-12.89a1.32,1.32,0,0,0,0-2.63" transform="translate(-20.1 -20.1)"/><path class="cls-6" d="M299.44,349.66c-5.68,6.25-15.64,10.54-22.32,16.08a164.37,164.37,0,0,0-20.68,20.36c-9.84,11.61-18,23.87-20.86,39-.07.37.46.66.65.28,7.09-14.13,15.15-27.77,26.52-38.93,5.36-5.27,11.09-10.25,16.89-15,6.69-5.53,14.78-14.77,22.4-18.44,2.78-1.33-.43-5.77-2.6-3.37" transform="translate(-20.1 -20.1)"/><path class="cls-6" d="M476.51,306.39c-12.87-14.85-32.66-12.26-50.31-9.86C407.77,299,382,303.73,369,318.21c-.4.44-.16,1.33.53,1.28,16.43-1.3,32.6-10.29,48.63-14.39,19.17-4.92,40-8.67,58,1.85a.36.36,0,0,0,.44-.56" transform="translate(-20.1 -20.1)"/><path class="cls-6" d="M417.73,321.16c-11.54.7-24.81,4.89-30.56,16a.52.52,0,0,0,.7.7c10.28-4.55,19.37-11.74,30-15.76.47-.17.46-1-.12-.93" transform="translate(-20.1 -20.1)"/><path class="cls-6" d="M304.77,384.23c-7.58-.76-14.46-.21-21.25,3.53s-10.37,9.64-13.62,16.6c-.17.38.29.81.61.47,8.26-8.55,22.88-16.69,34.4-19.54.63-.16.43-1-.14-1.06" transform="translate(-20.1 -20.1)"/><path class="cls-6" d="M407.29,639.57c4.78,8.23,9.19,16.59,13.15,25.11-2.75.62-5.5,1.19-8.27,1.74l-.54.1c-2.13-4.95-4.34-9.85-6.68-14.69l-1.2-2.46q-2.36-4.77-4.87-9.48c-3.57-6.69-7.35-13.26-11.26-19.77-6.29-10.45-12.81-24-23-31-.39-.27-.15-1,.34-.82.7.29,1.38.59,2.06.93,17.91,8.85,30.89,34.13,40.3,50.35" transform="translate(-20.1 -20.1)"/><path class="cls-6" d="M341.19,566.16c-17.57-19.63-36.26-38-54.77-56.75-17.5-17.71-37.79-36.72-44.39-61.56-.05-.2-.31-.11-.29.08,3.5,24.76,16.53,42.68,34.28,59.64,21.12,20.18,42.4,40.19,64.74,59a.3.3,0,0,0,.43-.43" transform="translate(-20.1 -20.1)"/><path class="cls-9" d="M273.4,310.93c-.7-.29-1.38.67-1,1.27,4,6.09,8.45,12.43,8.68,20s-3.38,14.5-7,20.88a.27.27,0,0,0,.37.37c16.81-7.66,15.87-35.67-1.06-42.53" transform="translate(-20.1 -20.1)"/><path class="cls-9" d="M431.34,261.86c-.62-10.4-8.24-21.35-19.66-20.2a1.05,1.05,0,0,0-.53,1.94c8.52,5.07,15,11.44,14.07,22.18-.78,9.3-7.09,16.45-13,23.11a.36.36,0,0,0,.35.6,26.88,26.88,0,0,0,18.81-27.63" transform="translate(-20.1 -20.1)"/><path class="cls-10" d="M349.39,640.78a.31.31,0,0,0-.61.13c1.09,10.54,3.56,21.05,5.74,31.46l2.78,0c-2.6-10.57-4.43-21.44-7.91-31.54M324.64,424.25A207.81,207.81,0,0,0,287.94,450c1.14.46,2.28.88,3.43,1.27,10.8-9.21,22.11-17.88,33.66-26.44.36-.27,0-.76-.39-.56M438,351.82c6.27-1.64,12.52-3.23,18.78-4.72-.1-.86-.22-1.72-.37-2.57a185.8,185.8,0,0,0-18.6,6.64.34.34,0,0,0,.19.65m-17.92,24.25c11.62-2.25,23.17-4.33,34.75-6,.34-1.1.64-2.2.91-3.32a201.61,201.61,0,0,0-35.8,8.63c-.4.14-.29.75.14.66M142,362.61a21.6,21.6,0,0,0,15.55-.1,36.32,36.32,0,0,0,17.08-9.44c1.89,12,5.43,24,8.52,35.28a344.81,344.81,0,0,0,17.56,50.3q2.58,5.75,5.48,11.31c-16.55,12.05-32.05,25.93-44.38,41.79a.47.47,0,0,0,.69.63c14.65-14,29.27-27.52,45.17-39.65q5.06,9.38,11,18.23l-1.13,1c-21.55,20-42.23,43.64-55.33,70.14a.47.47,0,0,0,.8.48C180.05,518,197.27,494.4,219.37,474l.81-.73q4,5.88,8.41,11.54c4.12,5.33,8.41,10.52,12.75,15.67-13.23,17.61-24.82,36.91-32.21,57.27a.47.47,0,0,0,.85.39c10.35-19.16,20.84-37.79,33.35-55.29,7.14,8.41,14.37,16.73,21.26,25.34,3.51,4.44,7,9,10.35,13.64a269.35,269.35,0,0,1,15.44,50.39c4.87,25.06,5.08,50.17,4.3,75.5,1,.18,2.07.36,3.11.52l2.61.42c.22-6.09.41-12.09.48-18,.33-26.34-2.27-52.39-9.25-77.83q-1-3.72-2.16-7.44c-.25-.82-.51-1.65-.77-2.47a242.31,242.31,0,0,0-9.23-24.6c-4.43-6.47-9.28-12.72-14.3-18.86-1.24-1.51-2.5-3-3.75-4.51h0l-2.21-2.62c-1.81-2.13-3.62-4.24-5.44-6.36l-2.13-2.48-4.73-5.54q3.79-5.08,7.85-10l1.1,1.56c1,1.33,1.94,2.65,2.94,4,.44.57.88,1.15,1.33,1.71s.92,1.19,1.39,1.78c.91,1.13,1.81,2.25,2.74,3.36l.27.33,1.29,1.53c1.05,1.24,2.12,2.48,3.2,3.7l1.24,1.41.75.84c.31.34.61.68.92,1l.43.48c.31.33.61.67.91,1l1.42,1.53q1.57,1.7,3.16,3.36c21.69,22.82,48.18,40.33,70.3,62.71A226,226,0,0,1,389.49,636c5.27,10.55,10.63,21.07,15.85,31.68,2.11-.36,4.2-.75,6.29-1.15l.54-.1q-3.54-7.33-7.22-14.59c-2-4-4-8-6.07-11.94-3.44-6.7-6.89-13.38-10.28-20.06A144.64,144.64,0,0,0,367,589.22c-9.79-10.9-20.79-20.83-31.59-30.54-1.91-1.72-3.85-3.43-5.79-5.13h0q-3.56-3.12-7.18-6.22l-4.69-4c-5.52-4.71-11.08-9.43-16.58-14.22l-2.24-2-1.72-1.51-2.1-1.86-3-2.65q-.47-.44-.93-.84c-.64-.59-1.28-1.17-1.91-1.77-.39-.34-.77-.69-1.15-1.05q-5.13-4.75-10.06-9.66c-.41-.41-.82-.82-1.22-1.24q-1.89-1.9-3.73-3.84L272,501.53c-.38-.41-.77-.82-1.14-1.23s-.81-.87-1.21-1.32-.77-.84-1.16-1.28-.77-.86-1.14-1.29l-1.15-1.29-1-1.16q-1.8-2.08-3.53-4.22c-.66-.81-1.31-1.63-2-2.45-.06-.08-.12-.17-.19-.25-.66-.84-1.31-1.69-1.95-2.54h0l.77-.92,1.86-2.12a284.21,284.21,0,0,1,21.41-21.65l1,.69c.69.48,1.38.94,2.09,1.38s1.42.87,2.15,1.27l1,.57.08,0,1.12.57c.73.37,1.46.71,2.21,1l.1,0c.37.17.75.33,1.12.48l1.18.46c.33.13.65.25,1,.36l.33.12.88.3c1.33.44,2.69.82,4.06,1.14l.89.2c.41.1.83.18,1.24.26l.45.08.9.16,1.62.23,1.12.14c27.7,3,59-13.33,64.71-41.3a42.22,42.22,0,0,0,1.15-20.29l.39.28a47.24,47.24,0,0,0,24,11.4,58.74,58.74,0,0,0,11.67.69,56.15,56.15,0,0,0,13.81-1.61c.71-.18,1.41-.37,2.11-.59.24-.07.47-.13.7-.21q1-.31,2-.69l.68-.24.85-.33.89-.36c.31-.12.62-.25.92-.39s.57-.24.86-.38l.62-.28.6-.29c1-.48,2-1,2.94-1.52l.54-.3.65-.37c.56-.33,1.12-.66,1.66-1l.74-.47c.25-.16.5-.32.74-.49l.73-.49.63-.44.82-.59.89-.66c1.18-.9,2.33-1.83,3.45-2.82.27-.24.55-.48.82-.74l.66-.6,1-1,.74-.73c.26-.26.52-.53.77-.8,1.27-1.31,2.47-2.68,3.61-4.09l.12-.14c.45-.57.89-1.13,1.32-1.7l.66-.9c.22-.3.44-.6.65-.91l.63-.91.61-.93q.6-.93,1.17-1.89c.19-.31.38-.63.56-.95l.55-1c.35-.65.7-1.3,1-2,.17-.33.33-.66.49-1s.33-.7.49-1,.24-.51.35-.77l.12-.28c.14-.31.27-.61.39-.92s.28-.67.41-1v0c.4-1,.77-2.06,1.12-3.1l.33-1.05q.8-2.64,1.34-5.34c.14-.7.27-1.42.38-2.13,0,0,0-.05,0-.07q.09-.53.15-1.05a297.77,297.77,0,0,1,42-2l.44,0c1.33,6.72,2.22,13.53,3,20.36q.42,3.84.78,7.68c.42,4.26.81,8.53,1.25,12.76A448.92,448.92,0,0,0,521.77,456q.65,3,1.34,5.94a450,450,0,0,0,20.18,64.59c8,20.12,18.17,39.06,27.12,58.73.31-.29.63-.58.94-.89q1.78-1.68,3.54-3.39c-.67-1.49-1.35-3-2-4.46-7.29-16-15.7-31.53-22.48-47.72-17.49-41.65-27.56-87.33-31.91-132.22-.06-.51-.1-1-.15-1.52-.15-1.52-.29-3-.45-4.56-.09-.91-.18-1.83-.28-2.74s-.18-1.74-.28-2.61c-.12-1.12-.25-2.24-.39-3.37-.23-1.91-.47-3.82-.74-5.72-.08-.58-.17-1.16-.26-1.74,0-.15,0-.31-.06-.46-.37-2.35-.77-4.7-1.23-7h0q6.68.34,13.25,1c1.4.15,2.8.3,4.2.47h0c0,.69.09,1.39.14,2.07.08,1,.15,2.05.23,3.08.64,8.31-.18,16.62-.2,24.93,0,1,0,2,0,3A96.5,96.5,0,0,0,535.57,424a98.75,98.75,0,0,0,3.67,10.93c1.28,3.19,2.93,6.17,3.77,9.46a57.66,57.66,0,0,0,3.71,9.54c.61,1.33,1.23,2.64,1.8,3.92q1.49,3.33,3,6.63c1.07,2.24,2.17,4.47,3.31,6.67,12,23.51,27.6,44.51,45.6,63.71,2.54,2.7,5.14,5.43,7.8,8.16l.51-.69c1-1.33,2-2.68,3-4-15.88-16.63-30.84-33.89-42.92-53.71a263,263,0,0,1-20.34-41.73c-2.78-7.09-5.07-14.35-7.75-21.46a65.23,65.23,0,0,1-4.18-22.59c0-3.74.79-7.54.54-11.24-.28-4.12.07-8.36,0-12.51,0-2-.1-4.05-.17-6.08,19.93,2.69,39.44,7.26,59.21,12.21a.46.46,0,0,0,.28-.88c-18.67-7.75-39.16-12.17-59.63-14.46-.27-5.26-.68-10.52-1.28-15.74-.15-1.26-.3-2.51-.46-3.75q-.64-4.92-1.52-9.81c27.26-.11,53.62,4.16,80.49,9.09a.46.46,0,0,0,.23-.9C588.62,336,560.16,333.4,533,333.82a240.4,240.4,0,0,0-6.62-26.57c17.57-2.8,35.3-4.24,53.32-5.45a.47.47,0,0,0,0-.94c-17.88-1.43-36.29.06-54.3,3.29a246.23,246.23,0,0,0-17.49-40.72,217.63,217.63,0,0,0-13.52-21.9c-3-4.28-6.21-9.18-10.07-13.1,1-.2,2-.41,2.94-.66,11.32-1.33,21.82-6.81,26.13-18A31.52,31.52,0,0,0,508,178.57a31.44,31.44,0,0,0-6.32-6.65c-9.25-7.29-21-9.51-32.52-8-12,1.63-22.46,7.32-33.2,12.42-6.42-.77-13.1-4-19.06-5.31a94.72,94.72,0,0,0-31.23-1.43A93.59,93.59,0,0,0,359.1,177a91.36,91.36,0,0,0-12.56,6.75,69,69,0,0,0-5.84,4,66.91,66.91,0,0,1,15.55-27.05,63.38,63.38,0,0,1,11.93-10c.63-.31,1.27-.6,1.91-.87a48.79,48.79,0,0,1,23.53-3.78c1.6.16,1.63-2.06.35-2.57-16.41-6.58-31.42-3-44.55,5.3A81.93,81.93,0,0,0,336.77,158c-2.27,2-4.41,4.08-6.5,6.24a59.41,59.41,0,0,0,4.77-19c.51-6.88.36-16.61-3.54-22.58-.84-1.27-3-1-3.26.48a1.21,1.21,0,0,0-.34.59,96,96,0,0,1-6.14,17.51c-.16.33-.33.66-.51,1a111.38,111.38,0,0,1-12.49,18.6c-9.43,11.37-20.7,21.06-32.58,29.78-24.39,17.84-51.48,32.24-73.53,53.14a138.08,138.08,0,0,0-15.53,17.34c-3.42,4.58-7.65,10-9.76,15.73-.28.55-.59,1.09-.87,1.65-27.37,1.86-57.5,23.88-55,53.91,1,12.57,8.16,25.65,20.52,30.21m14-8a10.92,10.92,0,0,1-5.68-3.92,12.38,12.38,0,0,1-2.53-5.2h0c-1.71-7.84,4.77-16.21,10.71-21.07,4.33-3.54,9.51-6.37,15.27-6.12a11.26,11.26,0,0,1,9.73,5.76,18,18,0,0,1,.82,6.05c-.46,4.86-3,9.32-6.19,13-.49.57-1,1.17-1.6,1.77a44.55,44.55,0,0,1-6.71,5.85c-4.39,2.68-9.43,4.59-13.82,3.87m101.73,68.24c.12.86.26,1.71.42,2.57l.15.79,0,.12c.06.31.13.61.2.92a46.87,46.87,0,0,0,3.65,10.2h0c-6.63,4.1-13.08,8.54-19.32,13.24-.2.14-.4.3-.6.45-.46.34-.91.69-1.36,1h0c-.06-.19-.11-.38-.17-.58-.31-1-.59-2.06-.85-3.08-.06-.25-.12-.5-.19-.75s-.13-.56-.2-.84-.17-.78-.26-1.17c-.17-.78-.33-1.56-.48-2.35-.08-.39-.15-.78-.22-1.17s-.13-.78-.19-1.17c-.25-1.57-.45-3.13-.61-4.69,0-.32-.06-.63-.08-.95-.06-.55-.1-1.11-.14-1.66,0-.3,0-.6,0-.91,6.64-3.77,13.39-7.23,20.23-10.44,0,.14,0,.29.05.43m-21.91,23.63c.07.33.15.66.22,1s.17.79.27,1.19c.17.77.36,1.54.56,2.31l.33,1.22c.22.77.44,1.55.68,2.32h0c-5.09,4-10,8.15-14.82,12.4-3.83-5.74-7.41-11.64-10.68-17.76,6.15-4.5,12.49-8.79,19.11-12.8l2.77-1.64h0c0,.18,0,.36,0,.55,0,.41.07.83.1,1.24,0,.24,0,.48.07.72s.05.57.08.86c.08.84.19,1.67.3,2.5,0,.29.07.57.11.85.25,1.7.54,3.38.88,5M245,495.67c-1.27-1.51-2.54-3-3.79-4.54q-4.4-5.31-8.56-10.77l-1.73-2.3c-1.47-2-2.92-4-4.34-6-.63-.89-1.25-1.79-1.87-2.69l-.08-.12c4.64-4.07,9.41-7.94,14.26-11.66.43,1.24.87,2.47,1.35,3.7.23.61.47,1.21.72,1.82s.49,1.17.74,1.76.44,1,.66,1.51c.12.26.23.52.35.77.52,1.14,1.07,2.28,1.63,3.4l.7,1.4,1.06,2c.29.51.57,1,.85,1.53l1,1.72c.66,1.13,1.34,2.26,2,3.38q.51.84,1.05,1.68l1,1.64,0,0c.37.55.73,1.11,1.1,1.65Q249,490.52,245,495.67m13.58-16.37q-1.12,1.27-2.22,2.55l-.36.42-.44-.6c-.54-.74-1.06-1.49-1.57-2.25-.27-.38-.53-.77-.79-1.16L253,478c-.29-.43-.57-.87-.84-1.31-.18-.26-.34-.53-.51-.79l-.45-.73c-.26-.42-.51-.85-.76-1.28a.76.76,0,0,1-.12-.19c-.22-.38-.45-.76-.66-1.15l-.47-.82c-.21-.38-.42-.75-.62-1.13-.3-.54-.59-1.09-.87-1.64s-.67-1.3-1-2v0c-.22-.44-.44-.89-.65-1.33s-.52-1.12-.77-1.69-.51-1.13-.75-1.71-.41-1-.61-1.45c-.08-.19-.16-.39-.23-.59-.18-.44-.35-.88-.52-1.32,0-.09-.07-.18-.1-.27-.16-.41-.32-.83-.47-1.24s-.29-.82-.43-1.22-.2-.58-.3-.86l1-.78,1-.72q9.66-7.11,19.76-13.58h0c.39.67.8,1.33,1.23,2l0,0c.21.33.42.64.65,1s.45.65.69,1a52,52,0,0,0,5.38,6.2c.53.64,1.07,1.27,1.64,1.88l.25.28.77.81.7.72c.2.21.4.41.61.6l.52.5.17.16.8.74.13.12.93.82c.32.28.65.55,1,.82l0,0c-7.26,6.85-14.15,14.06-20.63,21.42m104.65-45.6-.45.79c-8.17,14-24.31,24.08-40.75,27.48a54.4,54.4,0,0,1-10.42.49l-.89,0-.89-.07h0l-.75-.07-1-.1-.89-.11-.82-.11-.15,0-.81-.12-.88-.15-.89-.17c-.59-.11-1.17-.23-1.76-.37-1.75-.39-3.5-.87-5.22-1.42a67.64,67.64,0,0,1-10.11-4.2c1.62-1.42,3.25-2.84,4.89-4.24,10.8-9.21,22.11-17.88,33.66-26.44.36-.27,0-.76-.39-.56A207.81,207.81,0,0,0,287.94,450c-1.48,1.28-3,2.58-4.42,3.9l-.46-.28-.7-.42-.46-.31c-.25-.15-.49-.31-.73-.48l-.33-.22c-.31-.21-.62-.42-.92-.64l-1-.72c-.17-.13-.35-.26-.51-.4l-.74-.59c-.3-.23-.59-.48-.88-.73s-.43-.37-.64-.56-.44-.38-.65-.58l-.19-.18c-.28-.26-.57-.52-.84-.8l-.24-.23c-.2-.19-.39-.39-.58-.59s-.35-.34-.51-.52-.26-.28-.38-.42-.37-.39-.56-.59-.24-.27-.35-.41l-.56-.64-.33-.39-.57-.7-.77-1c-.29-.38-.58-.76-.85-1.15-.56-.78-1.09-1.56-1.6-2.37l.57-.36c8-5,16.1-9.89,24.35-14.68.38-.22.06-.75-.33-.59a194.78,194.78,0,0,0-26.13,13.06c-.27-.48-.54-1-.79-1.46-.06-.1-.11-.21-.16-.3l-.34-.69a.41.41,0,0,0-.05-.09c-.27-.55-.54-1.11-.79-1.68l-.33-.74a2.29,2.29,0,0,0-.1-.23c-.11-.25-.21-.51-.32-.77-.23-.57-.46-1.15-.68-1.75v0c-.09-.26-.19-.51-.28-.76s-.08-.24-.13-.37c-.18-.52-.35-1-.51-1.56-.1-.29-.18-.58-.28-.88,0,0,0,0,0-.06-.27-.9-.51-1.81-.74-2.72,17.11-7.86,34.8-14.25,52.85-20.33.43-.14.22-.72-.2-.65-18.2,3.38-36.08,9.73-53.07,17.76a47,47,0,0,1-.1-5.69v0c0-.41,0-.81.07-1.22l0-.38c0-.35,0-.71.09-1.06l.06-.6c0-.3.07-.6.11-.9.07-.5.14-1,.22-1.51a2.17,2.17,0,0,0,0-.25c.11-.68.25-1.35.39-2a3.4,3.4,0,0,0,.07-.34c.09-.39.18-.78.28-1.17s.2-.77.31-1.16.2-.72.31-1.07a46,46,0,0,1,4.64-10.37c.1-.15-.15-.28-.25-.12a44.11,44.11,0,0,0-8.63,27.9c0,.36,0,.72.05,1.08-6.84,3.3-13.54,6.87-20.05,10.61,0-1.55,0-3.09.1-4.63v0c0-.84.11-1.67.18-2.49,0-.43.07-.85.12-1.28h0c.09-.84.2-1.67.32-2.5.1-.46.23-.89.33-1.35a40.62,40.62,0,0,1,1.27-4,85.73,85.73,0,0,1,8.48-16.77v0q1.71-2.64,3.57-5.16a78.65,78.65,0,0,1,7.87-9.09,89.64,89.64,0,0,1,10.23-8.67c6.39-4.72,12-10.22,18.32-15a3.4,3.4,0,0,0,.31-.25,34.16,34.16,0,0,0-4,8.62,11.32,11.32,0,0,0-.45,4.24c.54,4.11,3.34,7.91,7.8,7.7,5.71-.25,11.29-2.47,17.16-2.57a62.46,62.46,0,0,1,44.17,16.8c.69.65,1.35,1.32,2,2,7.37,7.77,12.41,17.87,11.31,28.12a26.66,26.66,0,0,1-3.3,10.27m8-79.37a62.9,62.9,0,0,1,9.48-19.15,64.3,64.3,0,0,1,7-8.08c1.76-1.68,7.13-4.59,7.31-7.21.12-2-1.68-4-3.84-5.56a17.67,17.67,0,0,0-5.56-2.78,21.46,21.46,0,0,0-8.92,0c1.55-.62,3.1-1.2,4.66-1.76,10.86-4,21.8-7.37,33.11-10.48a128,128,0,0,1,13.65-3.08c2-.32,3.94-.57,5.91-.75a61.68,61.68,0,0,1,22.43,1.92l1.2.35c.45.14.9.28,1.35.44.29.09.59.19.88.3,1.27.45,2.51.94,3.74,1.48l1,.43.94.45c1.07.52,2.13,1.08,3.17,1.67l1.75,1c.57.36,1.14.72,1.7,1.09.4.26.79.53,1.18.8l.49.35c.6.42,1.18.86,1.76,1.31l.65.5c.5.39,1,.8,1.5,1.21l.84.72.77.67c.61.55,1.22,1.11,1.81,1.68l.3.27c.35.34.7.69,1,1,.12.11.23.23.35.35.31.32.63.64.93,1a305.53,305.53,0,0,0-32.69,12.33h0a44.61,44.61,0,0,0-4.21-3.3l-.63-.43q-1.28-.84-2.61-1.62l-.67-.37-.67-.36-.67-.35h0c-.23-.11-.45-.23-.68-.33-.7-.34-1.4-.66-2.11-1l-.71-.29c-.66-.27-1.32-.52-2-.74l-.68-.23c-.62-.2-1.23-.38-1.85-.55l-.89-.23-.51-.13-.59-.13-.69-.15c-.25-.05-.52-.11-.78-.15s-.69-.12-1-.18a.14.14,0,0,0-.07.28,46.62,46.62,0,0,1,15.67,7.49l1.36,1.28c.46.42.9.85,1.35,1.28s.85.83,1.27,1.26a208.56,208.56,0,0,0-38.34,22.57c-.34.25,0,.8.34.58C424,343.75,437.33,336.7,451,330.42c.65.74,1.29,1.51,1.9,2.3l.46.61.42.58c0,.06.09.12.13.19.26.36.51.74.77,1.13s.43.67.63,1,.42.69.62,1,.4.7.59,1.05.38.7.56,1.05l0,0c.18.34.36.7.53,1.05s.35.72.51,1.09c.34.72.66,1.47,1,2.21-.88.25-1.77.51-2.65.78a185.8,185.8,0,0,0-18.6,6.64.34.34,0,0,0,.19.65c6.27-1.64,12.52-3.23,18.78-4.72l3.26-.77c.32.91.62,1.84.9,2.76.11.38.22.76.32,1.14.15.55.3,1.09.43,1.64a39.49,39.49,0,0,1,1,10.53c0,.36,0,.71,0,1.06s-.05.73-.08,1.1a2,2,0,0,1,0,.25c0,.35-.06.7-.1,1-2.25.28-4.51.59-6.75.93a201.61,201.61,0,0,0-35.8,8.63c-.4.14-.29.75.14.66,11.62-2.25,23.17-4.33,34.75-6,2.39-.34,4.79-.67,7.19-1a.37.37,0,0,1,0,.09c-.06.34-.12.68-.19,1s-.17.83-.27,1.24c0,.19-.08.37-.13.55-.23,1-.48,1.9-.77,2.84-.08.28-.16.56-.25.83a57.07,57.07,0,0,1-2,5.43c-.15.35-.3.69-.46,1s-.19.43-.29.63a2.56,2.56,0,0,1-.11.24c-.12.27-.25.53-.38.79l-.39.78c-.35.67-.7,1.33-1.06,2l-.6,1.06a55.46,55.46,0,0,1-17.66,18.45,74.24,74.24,0,0,1-10,4.16c-9.18,3-19.15,4.05-28.68,2.07-10.27-2.15-20.72-8.95-25.87-18.31a36.83,36.83,0,0,1-3.79-11c-1.72-9.49-.47-20,2.13-28.64m150.61-44.64c.33,1.07.64,2.13.95,3.2s.64,2.22,1,3.34c.14.49.27,1,.4,1.47.32,1.19.63,2.37.93,3.57.24,1,.48,1.93.71,2.9.28,1.2.56,2.41.83,3.61.09.42.18.84.28,1.26.12.58.25,1.17.37,1.76s.21,1,.31,1.5l.33,1.64-2.34.07-2.19.09c-6.52.27-13.11.71-19.7,1.38l0,0c-.22-.44-.45-.87-.68-1.31s-.48-.88-.73-1.32-.49-.88-.74-1.32-.5-.88-.76-1.31L500,329c-.31-.5-.62-1-.94-1.51l-.73-1.15L497.5,325c-.56-.84-1.13-1.67-1.72-2.5l-.88-1.23L494,320.1l-.92-1.2c-.29-.37-.58-.74-.88-1.1a.27.27,0,0,0-.07-.08c-.31-.4-.63-.78-.95-1.17l-.89-1.05-.09-.1,1.63-.49c8.09-2.37,16.19-4.28,24.32-5.85,1.72-.34,3.45-.65,5.18-1,.17.53.34,1.06.5,1.59m-29,16.29c.53.79,1,1.59,1.54,2.4l0,.07c.49.79,1,1.59,1.43,2.4l.07.11c.46.79.91,1.59,1.34,2.4l.08.13c.43.81.86,1.63,1.27,2.45a.41.41,0,0,1,0,.09,253.81,253.81,0,0,0-35.83,6.69h0a47,47,0,0,0-7.82-12c-.45-.5-.92-1-1.4-1.49h0a304.61,304.61,0,0,1,32.22-12.49,87.32,87.32,0,0,1,7,9.2l0,0m-26,39.38h0q.09-1.31.12-2.61v-.08a47.54,47.54,0,0,0-.32-6.41c0-.3-.07-.61-.11-.92s-.13-.85-.19-1.27h0c-.07-.42-.15-.84-.23-1.26l-.27-1.25a47.14,47.14,0,0,0-1.84-6.1h0c12-2.71,23.95-5,36.1-6.58h0c.31.66.6,1.32.9,2,.2.46.41.93.61,1.4l.3.72c.19.45.38.9.56,1.35l.08.21c.12.28.23.57.34.85s.19.49.28.74.31.78.45,1.17.38,1,.55,1.53.37,1.05.55,1.57c.12.34.23.69.34,1s.27.81.39,1.21.19.61.28.91.27.88.4,1.32.22.75.32,1.12.16.55.23.83c.24.85.46,1.7.67,2.56.08.31.16.61.23.92.2.83.4,1.65.58,2.48.09.38.17.76.25,1.14a313.57,313.57,0,0,0-41.57,1.45m60.88-.4q-6.84-.57-13.61-.85c-.29-1.33-.6-2.65-.93-4l-.48-1.82c-.15-.56-.3-1.11-.46-1.66-.05-.2-.11-.4-.17-.6-.15-.53-.31-1.05-.48-1.58s-.34-1.11-.53-1.66a4.88,4.88,0,0,0-.18-.54c-.16-.5-.33-1-.51-1.51,0,0,0-.08-.05-.13-.21-.62-.44-1.23-.67-1.85l-.51-1.32-.53-1.32-.54-1.32c-.18-.44-.37-.88-.56-1.32q-1.14-2.64-2.41-5.25h0c6.23-.7,12.51-1.22,18.85-1.49l1.68-.07,2.8-.08c.12.69.25,1.37.36,2.06.09.48.18,1,.26,1.44,0,.1,0,.19,0,.29.16.9.3,1.8.44,2.69.31,2,.6,3.93.85,5.9.16,1.17.31,2.35.43,3.52l.12,1.07c.42,3.9.71,7.83,1,11.75-1.4-.14-2.8-.26-4.2-.38M494.89,220.71a35.57,35.57,0,0,1-5.07,2.29q-1.57.57-3.21,1a20.81,20.81,0,0,1-2.63.48c-.46.05-.93.08-1.4.11a35.39,35.39,0,0,1-13.47-2.11l-.68-.26c-3.69-1.5-7.06-4.28-8.49-8.06a11.13,11.13,0,0,1-.79-4.23c.18-10.22,16.88-14.43,25.11-14.3a30.43,30.43,0,0,1,9.48,2.7,15.56,15.56,0,0,1,7.6,10.15,9.62,9.62,0,0,1,0,1.3,14.29,14.29,0,0,1-.21,1.65,15,15,0,0,1-6.21,9.29M178.63,282.64a58.36,58.36,0,0,0,6.67-10c1.42-2.48,2.85-5,4.47-7.23a133.89,133.89,0,0,1,14.4-16.7,204.87,204.87,0,0,1,19.1-16.59c5.68-4.21,11.52-8.24,17.38-12.18,11.93-8,24.16-15.91,35.74-24.55,12.82-9.31,25-19.48,35.12-31.81.41-.49.81-1,1.22-1.5,5.84-7.21,11.73-15.62,15.3-24.61.57-1.43,1.08-2.89,1.53-4.35a48,48,0,0,1,1,11.24,57.72,57.72,0,0,1-6.32,22.3,113.75,113.75,0,0,1-9.69,15.88c-4.28,5.22-8.61,10.46-12.81,15.78l-1.49,1.89c-.51.56-1,1.14-1.52,1.73a.14.14,0,0,0-.05.1c-2.66,2.8-5.28,5.48-7.78,8.08-.31.28.13.72.43.46A217.57,217.57,0,0,0,310.69,193h0a104.55,104.55,0,0,0,9-10.73,169.7,169.7,0,0,1,15.53-16.16c2.44-2.15,4.92-4.22,7.48-6.19a86.88,86.88,0,0,1,8.68-5.93,66.7,66.7,0,0,1,7.77-4,58,58,0,0,1,9.61-3.14,65.94,65.94,0,0,0-6.88,4.18,52.28,52.28,0,0,0-18.83,20,60.91,60.91,0,0,0-6.61,15.09,51.4,51.4,0,0,0-1.22,5.44c-.44,2.52,3,3.72,4,1.52a20.54,20.54,0,0,0,3.11-1.7c1.73-1.13,3.4-2.45,5-3.62l.11-.08c.57-.41,1.12-.8,1.69-1.15,1.3-.8,2.62-1.58,4-2.31.5-.28,1-.55,1.49-.81l.65-.34q3.06-1.59,6.23-3a99.35,99.35,0,0,1,39.18-6.63,87.25,87.25,0,0,1,16,2c5.38,1.23,10.53,3.57,15.91,4.64,4.54.89,8.42-.41,12.36-2.58,2.3-1.27,4.57-2.52,6.86-3.66.58-.26,1.18-.49,1.76-.72a68.24,68.24,0,0,1,18.92-4.73,46.77,46.77,0,0,1,6-.14,38.73,38.73,0,0,1,12.22,2.56c10.79,4.14,19.58,13.12,19.31,25.59A27.19,27.19,0,0,1,506,210.2a15.39,15.39,0,0,0-3.31-10.59c-.2-.25-.4-.49-.61-.73a17.68,17.68,0,0,0-4.94-3.87c-9-4.79-21.14-6-30.31-1.15a21.69,21.69,0,0,0-10.66,12.59,13.16,13.16,0,0,0-.77,4.42,18.1,18.1,0,0,0,.19,3.51,15.52,15.52,0,0,0,8.4,12.18c4.43,2.32,10.1,3,15.83,2.48,2.71,4.77,6.45,9.12,9.46,13.56q6.09,8.91,11.42,18.3a239.55,239.55,0,0,1,18.84,41.76c.28.81.55,1.63.82,2.44q-2.65.52-5.28,1.09c-8.15,1.76-16.17,3.84-24,6.12l-2.9.86c-1.14-1.23-2.32-2.43-3.53-3.57l-.85-.8c-.36-.33-.71-.66-1.08-1l-.71-.63s0,0,0-.05l-.83-.7c-.67-.57-1.36-1.13-2-1.67l-.89-.68a66.86,66.86,0,0,0-6.06-4.08l-1-.61-1-.58c-.26-.15-.53-.29-.8-.43l-.78-.41q-.89-.45-1.8-.87l-.93-.43-.18-.08-.88-.38c-.65-.28-1.31-.54-2-.8l-.77-.28c-.72-.27-1.45-.52-2.2-.76s-1.49-.47-2.24-.67c-13.84-3.85-26.94-2.68-40.66,1-12.56,3.36-24.75,7-36.83,11.52-3.11,1.15-6.25,2.39-9.36,3.7C345,320.7,319.46,333.4,296.12,348.59c-24.55,16-53.56,38.31-60.42,68.31a56.45,56.45,0,0,0-1.32,8.11c-.08.91-.13,1.83-.17,2.75,0,.46,0,.92,0,1.38,0,.84,0,1.69,0,2.53h0c-1.37.8-2.73,1.62-4.09,2.44-6.4,3.88-12.8,8-19.08,12.41-.27-.52-.54-1-.8-1.56q-2.66-5.31-5.05-10.75a324.65,324.65,0,0,1-14.45-40.77c-2.8-9.71-5.25-19.55-7.65-29.37-.9-3.78-1.81-7.6-2.83-11.41-.38-1.41-.77-2.82-1.19-4.23l0-.11c.18-.2.36-.43.53-.66a11.91,11.91,0,0,0,.85-.89c6-6.45,10.65-20.09,4.71-27.84-2-3.26-6.6-5-10.32-5.35-7.24-.72-14,3.11-19.53,7.42-8.21,6.41-15.56,17.82-11.35,27.95a.08.08,0,0,0,0,0,17.41,17.41,0,0,0,2.67,4.38,13.61,13.61,0,0,0,11,5.18,22.44,22.44,0,0,1-8.55,1.08,19.72,19.72,0,0,1-7.38-2.08,27.77,27.77,0,0,1-12.74-13.74,36.49,36.49,0,0,1-3.14-15.88,39.91,39.91,0,0,1,1.25-8.79c6.45-20.67,29.49-32.81,50.37-36a.61.61,0,0,0,.18-.08,1.07,1.07,0,0,0,.89-.31l.15-.15M571,548.59a.31.31,0,0,0-.53.32A164.71,164.71,0,0,0,579,565.49c1.37,2.4,2.75,4.78,4.12,7.18.63-.66,1.26-1.32,1.87-2-.39-.65-.77-1.3-1.16-2A229.1,229.1,0,0,0,571,548.59M349.39,640.78a.31.31,0,0,0-.61.13c1.09,10.54,3.56,21.05,5.74,31.46l2.78,0c-2.6-10.57-4.43-21.44-7.91-31.54" transform="translate(-20.1 -20.1)"/><path class="cls-10" d="M396.5,295.42a32,32,0,1,0-32-32.05,32,32,0,0,0,32,32.05m12.18-25.6c6,0,7,9.38.95,9.38s-7-9.38-.95-9.38m-31.86-18,1.81-3a13.74,13.74,0,0,1,5.84-4.23l3.41-.79a9.94,9.94,0,0,1,5.1.58,12.23,12.23,0,0,1,8,6.5,10.13,10.13,0,0,1,1.66,5v.76a13.49,13.49,0,0,1-1.07,6.78c-.62,1-1.2,2-1.81,3a13.8,13.8,0,0,1-5.82,4.23c-1.14.25-2.29.51-3.41.79a10.48,10.48,0,0,1-5.13-.59,10.26,10.26,0,0,1-4.66-2.29,10.4,10.4,0,0,1-3.36-4.23,10.23,10.23,0,0,1-1.66-5v-.77a14,14,0,0,1,1.07-6.78" transform="translate(-20.1 -20.1)"/><path class="cls-10" d="M284.29,331.66a32,32,0,1,0-32,32,32,32,0,0,0,32-32m-19.83,6.45c6,0,7,9.38.92,9.38s-7-9.38-.92-9.38m-18.15,1.66a10.61,10.61,0,0,1-5.12-.59,9.77,9.77,0,0,1-4.64-2.32,10,10,0,0,1-3.37-4.2,10.13,10.13,0,0,1-1.66-5v-.77a13.51,13.51,0,0,1,1.08-6.78l1.81-3a13.47,13.47,0,0,1,5.81-4.23l3.41-.79a13,13,0,0,1,13.13,7.08,10,10,0,0,1,1.66,5V325a13.51,13.51,0,0,1-1.07,6.78l-1.81,3a13.52,13.52,0,0,1-5.81,4.2l-3.42.82" transform="translate(-20.1 -20.1)"/><path class="cls-11" d="M672.4,350a320.89,320.89,0,0,1-60.67,188.29c-1,1.35-2,2.7-3,4l-.51.69q-3.33,4.46-6.81,8.78-7.79,9.68-16.28,18.73a.85.85,0,0,1-.16.17c-.61.66-1.24,1.32-1.87,2-.33.35-.67.71-1,1.06q-3.55,3.71-7.24,7.28-1.75,1.71-3.54,3.39c-.31.31-.63.6-.94.89q-4.73,4.44-9.63,8.67a321.24,321.24,0,0,1-140.34,70.72c-2.75.62-5.5,1.19-8.27,1.73l-.54.11c-2.09.4-4.18.79-6.29,1.15a323.1,323.1,0,0,1-48,4.65l-2.78,0c-1.5,0-3,0-4.52,0a324.8,324.8,0,0,1-42.68-2.8c-2.32-.3-4.62-.64-6.92-1l-2.61-.42c-1-.16-2.07-.34-3.11-.52C143,641.44,27.6,509.2,27.6,350,27.6,171.94,171.94,27.6,350,27.6S672.4,171.94,672.4,350" transform="translate(-20.1 -20.1)"/></g></g></g></svg>