<svg style="fill: #1da1f2" xmlns="http://www.w3.org/2000/svg" viewBox="0 0 401.15 325.96"><g><g><path d="M126.15,326c151.38,0,234.18-125.42,234.18-234.18,0-3.56,0-7.11-.24-10.64a167.31,167.31,0,0,0,41.06-42.6,164.15,164.15,0,0,1-47.27,13A82.64,82.64,0,0,0,390.07,6a165.08,165.08,0,0,1-52.27,20A82.38,82.38,0,0,0,197.54,101,233.7,233.7,0,0,1,27.92,15,82.36,82.36,0,0,0,53.4,124.88a81.54,81.54,0,0,1-37.35-10.3v1a82.33,82.33,0,0,0,66,80.68,82.34,82.34,0,0,1-37.17,1.41,82.41,82.41,0,0,0,76.9,57.15A165.19,165.19,0,0,1,19.59,290.18,168.72,168.72,0,0,1,0,289a233,233,0,0,0,126.15,36.9"/></g></g></svg>
