<svg xmlns="http://www.w3.org/2000/svg" viewBox="0 0 56.27 56.27"><defs><style>.cls-1{fill:#edeeef;}.cls-2{fill:#d08d6c;}.cls-3{fill:#533419;}.cls-4{fill:#f9dec1;}.cls-5{fill:#f16563;}.cls-6{fill:#f7c99d;}</style></defs><title>Asset 1</title><g id="Layer_2" data-name="Layer 2"><g id="Layer_1-2" data-name="Layer 1"><path class="cls-1" d="M56.27,28.14A28.08,28.08,0,0,1,46.15,49.75l-.25.2-.28.22a27.45,27.45,0,0,1-6.13,3.71l-.27.12-.27.12a28.16,28.16,0,0,1-29.54-5l-.3-.26a3.83,3.83,0,0,1-.29-.28,27.08,27.08,0,0,1-2.48-2.65l-.28-.36-.29-.36a28.14,28.14,0,1,1,50.5-17.07Z"/><circle class="cls-2" cx="48.6" cy="19.24" r="3.62"/><path class="cls-3" d="M48.6,23.14a3.91,3.91,0,1,1,3.91-3.9A3.91,3.91,0,0,1,48.6,23.14Zm0-7.23a3.33,3.33,0,1,0,3.33,3.33A3.34,3.34,0,0,0,48.6,15.91Z"/><circle class="cls-3" cx="48.27" cy="19.52" r="2.18"/><path class="cls-3" d="M48.27,21.75a2.23,2.23,0,1,1,2.22-2.23A2.23,2.23,0,0,1,48.27,21.75Zm0-4.35a2.13,2.13,0,1,0,2.13,2.12A2.12,2.12,0,0,0,48.27,17.4Z"/><circle class="cls-2" cx="17.87" cy="10.74" r="3.62"/><path class="cls-3" d="M17.87,14.64a3.91,3.91,0,1,1,3.9-3.9A3.91,3.91,0,0,1,17.87,14.64Zm0-7.23a3.33,3.33,0,1,0,3.33,3.33A3.33,3.33,0,0,0,17.87,7.41Z"/><circle class="cls-3" cx="17.86" cy="10.86" r="2.18"/><path class="cls-3" d="M17.86,13.09a2.23,2.23,0,1,1,2.23-2.23A2.23,2.23,0,0,1,17.86,13.09Zm0-4.36A2.13,2.13,0,1,0,20,10.86,2.14,2.14,0,0,0,17.86,8.73Z"/><path class="cls-2" d="M45.9,50l-.28.22a27.45,27.45,0,0,1-6.13,3.71l-.27.12-.27.12a28.16,28.16,0,0,1-29.54-5l-.3-.26a3.83,3.83,0,0,1-.29-.28,27.08,27.08,0,0,1-2.48-2.65l-.28-.36c0-7.17,1-18.17,5-26.54a.38.38,0,0,1,.06-.13,25.49,25.49,0,0,1,3.68-5.79L15,12.9a1.37,1.37,0,0,1,.2-.22,9,9,0,0,1,.74-.77l0,0a.08.08,0,0,1,0,0,16.17,16.17,0,0,1,2.32-1.9,6.46,6.46,0,0,1,1.07-.58.05.05,0,0,1,0,0l.05,0a9.31,9.31,0,0,1,1.16-.44l.29-.08.3-.07c7.14-1.8,19.67,1.6,24.77,7.63l.19.23c.06.08.12.15.17.23a8.73,8.73,0,0,1,.63.91l0,0,0,0a8.28,8.28,0,0,1,1,2.45c.11.48.2.95.26,1.4a0,0,0,0,1,0,.05s0,0,0,.05a5.9,5.9,0,0,1,.09.81c0,.1,0,.19,0,.28s0,.19,0,.29c.21,4.4-1.58,7.69-2.9,11.16l0,.1a17.93,17.93,0,0,0-1.28,5.33C43.83,45.85,45.59,48.33,45.9,50Z"/><path class="cls-3" d="M45.74,34.55l0-.09c.25-.64.51-1.28.78-1.93,1.16-2.82,2.36-5.73,2.18-9.4,0-.09,0-.19,0-.29l0-.28q0-.42-.09-.84a.06.06,0,0,0,0,0,.09.09,0,0,0,0-.05c-.06-.47-.15-.95-.26-1.44a8.46,8.46,0,0,0-1.07-2.54,327811032236.62,327811032236.62,0,0,1,0-.08,11.43,11.43,0,0,0-.65-.95l-.18-.22-.19-.23a22.29,22.29,0,0,0-8.92-5.88A34.09,34.09,0,0,0,26.66,8,19.1,19.1,0,0,0,21,8.46a1.81,1.81,0,0,0-.31.09l-.29.08a7.74,7.74,0,0,0-1.22.48.06.06,0,0,0,0,0l-.05,0a7.1,7.1,0,0,0-1,.55,17.26,17.26,0,0,0-2.29,1.86l0,0s0,0,0,0c-.26.25-.53.52-.77.8a1.51,1.51,0,0,0-.21.23,2.09,2.09,0,0,0-.2.22,26,26,0,0,0-3.77,5.91l-.06.11a1.42,1.42,0,0,1-.08.18A50,50,0,0,0,7,31.61a86.26,86.26,0,0,0-1.2,13.6l.29.36.28.36a83.93,83.93,0,0,1,1.2-14.22,49.9,49.9,0,0,1,3.67-12.39l.08-.17.07-.14A26.2,26.2,0,0,1,15,13.33l.19-.21c.06-.07.12-.15.19-.22a10.09,10.09,0,0,1,.72-.74l0,0,0,0a15.85,15.85,0,0,1,2.33-1.91,7.63,7.63,0,0,1,1.1-.6l0,0,0,0a8.45,8.45,0,0,1,1.14-.41l.27-.08L21.35,9c4.08-1,10.09-.36,15.71,1.85a21.37,21.37,0,0,1,8.7,5.73,1,1,0,0,1,.19.22l.19.24a6.86,6.86,0,0,1,.6.88s0,0,0,.05a0,0,0,0,1,0,0,7.91,7.91,0,0,1,1,2.33c.1.45.19.89.24,1.31a.11.11,0,0,1,0,.05.13.13,0,0,1,0,.06c0,.27.07.53.09.79,0,.1,0,.2,0,.29a2.83,2.83,0,0,1,0,.29c.18,3.57-1,6.42-2.13,9.2-.24.59-.49,1.19-.72,1.8a.56.56,0,0,0,0,.12h0a18.57,18.57,0,0,0-1.32,5.47,19.82,19.82,0,0,0,1.26,8.95,6.93,6.93,0,0,1,.43,1.52L45.9,50l.25-.2a11.29,11.29,0,0,0-.42-1.3,19.22,19.22,0,0,1-1.22-8.71A17.58,17.58,0,0,1,45.74,34.55Z"/><path class="cls-4" d="M43.53,32.93c0,.08-.09.15-.14.23-.81,1.36-1.81,2.79-2.75,4.31a2.39,2.39,0,0,0-.13.21c-1.8,2.94-3.36,6.21-3,9.89s1.16,5.58,1.72,6.43l-.27.12a28.16,28.16,0,0,1-29.54-5l-.3-.26c-.2-8.06.22-22.51,5.35-28.07a2.73,2.73,0,0,1,.23-.25,7.9,7.9,0,0,1,1-.85,11.06,11.06,0,0,1,6-1.63H22a31.87,31.87,0,0,1,7.83,1,44.24,44.24,0,0,1,7.06,2.32A26.25,26.25,0,0,1,43,24.85l.16.13a5.21,5.21,0,0,1,1.9,2.57C45.42,29.2,44.68,31,43.53,32.93Z"/><path class="cls-3" d="M45.34,27.49a5.19,5.19,0,0,0-1.82-2.58l-.13-.12a26.48,26.48,0,0,0-6.5-3.74l-1.18-.48A46.58,46.58,0,0,0,30,18.78a32.56,32.56,0,0,0-8.26-1h-.24a11.21,11.21,0,0,0-6,1.67,7.4,7.4,0,0,0-1.1.95s0,0,0,0l-.22.24a17.38,17.38,0,0,0-3.46,7A57,57,0,0,0,9,39.39c-.2,3.35-.21,6.58-.15,9.19a3.83,3.83,0,0,0,.29.28l.3.26c-.08-2.69-.09-6.12.13-9.7.67-11,3-16.15,5.18-18.49l.25-.26a6.29,6.29,0,0,1,.88-.74,10.94,10.94,0,0,1,6.06-1.57h.29c.76,0,1.55,0,2.39.1a35.7,35.7,0,0,1,5.12.85,45,45,0,0,1,5.79,1.81c.43.16.84.33,1.24.5a26.46,26.46,0,0,1,5.88,3.29l.19.16a5.21,5.21,0,0,1,2,2.55c.35,1.56-.37,3.27-1.49,5.17l-.15.25c-.43.71-.91,1.45-1.41,2.21s-.83,1.26-1.23,1.92l-.15.23c-1.87,3-3.5,6.38-3.14,10.2s1.15,5.6,1.74,6.53l.27-.12.27-.12c-.53-.79-1.35-2.59-1.71-6.34-.33-3.53,1.14-6.7,2.88-9.56l.12-.2c.47-.76,1-1.5,1.43-2.22s1-1.53,1.44-2.26l.13-.22C45,31.07,45.73,29.24,45.34,27.49Z"/><path class="cls-3" d="M28.66,17.38a.43.43,0,0,1-.26-.09c-3.58-2.71-5.33-2.06-6.46-1.19a.43.43,0,1,1-.53-.68c1.27-1,3.42-1.92,7.51,1.18a.43.43,0,0,1,.08.61A.42.42,0,0,1,28.66,17.38Z"/><path class="cls-3" d="M43.88,22.06a.45.45,0,0,1-.4-.26c-1-2.32-2.6-3-5.43-2.31a.44.44,0,0,1-.52-.32.44.44,0,0,1,.32-.52,6.33,6.33,0,0,1,3.73,0,4.75,4.75,0,0,1,2.69,2.79.43.43,0,0,1-.22.57A.47.47,0,0,1,43.88,22.06Z"/><path class="cls-3" d="M29.81,19c.44-1,3.72-.29,4.59,0s2.75,1.43,2.47,2.32-2.72,3.21-5.28,2.46S29.45,19.82,29.81,19Z"/><path class="cls-3" d="M20.54,27.85,31,27.11l6.46,5.75S28.6,44.71,21.68,41.49C15.69,38.71,20.54,27.85,20.54,27.85Z"/><path class="cls-3" d="M24.22,42.33a6.26,6.26,0,0,1-2.67-.58c-2.57-1.19-3.6-4-3-8.17a25.12,25.12,0,0,1,1.7-5.85l.07-.16,10.75-.75,6.75,6-.16.21a37.15,37.15,0,0,1-5.34,5.57,18,18,0,0,1-5.19,3.17A8.47,8.47,0,0,1,24.22,42.33ZM20.74,28.12c-.56,1.33-4.22,10.66,1.06,13.11,6.13,2.85,14-6.78,15.27-8.33L30.9,27.41Z"/><path class="cls-4" d="M21.36,24s-3.24,5,2.31,6.27,6.55-.31,7.67-3.93Z"/><path class="cls-3" d="M26.81,30.94a14.81,14.81,0,0,1-3.2-.43,4.15,4.15,0,0,1-3.23-2.26c-.82-2,.68-4.35.74-4.45a.29.29,0,1,1,.49.31s-1.4,2.21-.7,3.93A3.61,3.61,0,0,0,23.73,30c2.62.59,4.24.56,5.28-.1s1.47-1.75,2.06-3.63a.29.29,0,0,1,.36-.19.3.3,0,0,1,.19.36C30.71,29.3,29.81,30.94,26.81,30.94Z"/><path class="cls-4" d="M39.39,28c.37,2.8-.63,5.86-4.43,4.87-5-1.31-5.11-3.19-3.62-6.56Z"/><path class="cls-3" d="M36.33,33.34a5.86,5.86,0,0,1-1.44-.2c-2.5-.65-3.86-1.45-4.4-2.59s-.08-2.85.59-4.36a.29.29,0,0,1,.38-.15.28.28,0,0,1,.14.38c-.84,1.9-1,3-.6,3.88s1.75,1.69,4,2.28a3.21,3.21,0,0,0,3.06-.43c.88-.77,1.25-2.31,1-4.13a.29.29,0,0,1,.25-.32.28.28,0,0,1,.32.25c.27,2-.18,3.73-1.2,4.63A3.06,3.06,0,0,1,36.33,33.34Z"/><path class="cls-3" d="M27.19,27.35c-.56-1-1.12-2-1.7-3s-1.15-2-1.75-3-1.2-2-1.84-3c-.32-.48-.65-1-1-1.43-.17-.23-.35-.46-.54-.68a3.58,3.58,0,0,0-.62-.61,4,4,0,0,1,.66.57c.21.21.4.43.59.65.38.44.75.9,1.1,1.36.71.93,1.39,1.88,2.05,2.84s1.32,1.92,2,2.89,1.28,1.95,1.9,2.94a.47.47,0,0,1-.14.66.49.49,0,0,1-.67-.15v0Z"/><path class="cls-3" d="M25.87,28.59H25l-.93,0c-.62.05-1.25.12-1.86.21a23.15,23.15,0,0,0-3.66.86,20.29,20.29,0,0,0-3.46,1.49l-.21.11-.2.12-.41.24-.79.52A18.7,18.7,0,0,0,12,33.35a17,17,0,0,1,1.42-1.26c.25-.21.51-.39.76-.58l.4-.27.2-.13.2-.13a20,20,0,0,1,3.42-1.73A24.56,24.56,0,0,1,22,28.13c.63-.13,1.26-.24,1.9-.33l1-.11.48,0,.5,0a.48.48,0,0,1,0,1h0Z"/><path class="cls-3" d="M34,29.64l.34.26.34.26.64.54q.63.56,1.23,1.14a22.72,22.72,0,0,1,2.19,2.52,16.89,16.89,0,0,1,1.74,2.84,12.77,12.77,0,0,1,.63,1.54,12.55,12.55,0,0,1,.42,1.6A13.63,13.63,0,0,0,41,38.78a15.46,15.46,0,0,0-.73-1.47,17.07,17.07,0,0,0-1.9-2.65,22.7,22.7,0,0,0-2.31-2.29c-.41-.35-.83-.69-1.27-1-.21-.17-.43-.33-.65-.48l-.34-.22-.33-.21h0a.46.46,0,0,1-.16-.65.49.49,0,0,1,.66-.17Z"/><path class="cls-3" d="M33.54,27.94c.47-.23.93-.43,1.4-.64l.7-.29.7-.29c.95-.37,1.9-.71,2.87-1A30.1,30.1,0,0,1,42.15,25a16.88,16.88,0,0,1,3-.3,17.32,17.32,0,0,0-3,.53l-.72.21-.71.23-.35.12-.35.13c-.24.09-.47.17-.7.27-.93.36-1.84.78-2.74,1.21l-.67.33-.66.35c-.44.23-.88.47-1.3.72h0a.48.48,0,1,1-.49-.82Z"/><path class="cls-3" d="M25.14,27c-1.34-.83-2.7-1.64-4.05-2.45S18.37,23,17,22.2s-2.75-1.54-4.15-2.27c-.7-.37-1.41-.72-2.12-1.05-.36-.17-.72-.33-1.09-.47l-.27-.11-.28-.1-.28-.08-.29-.06.29,0,.29.08.28.08.28.09c.38.13.75.27,1.12.42.73.29,1.45.61,2.17.94,1.44.66,2.86,1.36,4.27,2.07S20,23.22,21.44,24s2.79,1.48,4.18,2.24a.48.48,0,1,1-.46.84Z"/><path class="cls-3" d="M34.61,28.59c.55.21,1.08.43,1.61.65l.8.34.79.35c1,.48,2.08,1,3.1,1.51s2,1.1,3,1.72a26.24,26.24,0,0,1,2.77,2,25.63,25.63,0,0,0-2.9-1.82c-1-.55-2-1-3.07-1.5S38.6,31,37.54,30.6l-.81-.3-.8-.28c-.54-.18-1.09-.36-1.62-.52h0a.48.48,0,0,1,.28-.92Z"/><path class="cls-5" d="M20.86,37.45c.54,1.27,4.08-1.75,5.66-.7s.34,3.73,1.28,3.59,4.25-5,2.21-6.1-3,.5-3.32.34.12-1.91-2.36-1.91C22.32,32.67,20.22,35.93,20.86,37.45Z"/><path class="cls-6" d="M23.43,39.84a7.89,7.89,0,0,1-4.67-5.36c-.29,2.83.2,5.75,2.92,7s5.58.26,8.19-1.41A13,13,0,0,1,23.43,39.84Z"/><path class="cls-3" d="M24.23,42.34a6.28,6.28,0,0,1-2.68-.59c-2.38-1.1-3.45-3.63-3.08-7.29l.14-1.41L19,34.4a7.63,7.63,0,0,0,4.49,5.17h0a12.47,12.47,0,0,0,6.3.22l1.41-.25-1.2.78A11,11,0,0,1,24.23,42.34ZM19,35.87c0,2.69,1,4.49,2.83,5.36s4.13.66,6.66-.67a11.61,11.61,0,0,1-5.13-.45h0A7.67,7.67,0,0,1,19,35.87Z"/></g></g></svg>